<svg width="100" height="100" viewBox="0 0 100 100" fill="none" xmlns="http://www.w3.org/2000/svg">
<path d="M99.993 49.995L49.9992 0.000488281L0 49.995L49.9992 99.991L99.993 49.995Z" fill="#DA251D"/>
<mask id="mask0_30_94" style="mask-type:alpha" maskUnits="userSpaceOnUse" x="0" y="0" width="100" height="100">
<path d="M99.993 49.995L49.9992 0.000488281L0 49.995L49.9992 99.991L99.993 49.995Z" fill="#4D5659"/>
</mask>
<g mask="url(#mask0_30_94)">
<path d="M50 0H95C96.6569 0 98 1.34315 98 3V97C98 98.6569 96.6569 100 95 100H50V0Z" fill="black" fill-opacity="0.2"/>
</g>
<path d="M28.0751 53.6119C28.0751 55.2249 27.1321 56.044 25.4896 56.044H23.9688V51.0901H25.7335C27.2226 51.0902 28.0751 52.0331 28.0751 53.6119ZM27.7401 44.9236C27.7401 46.7189 26.4942 47.2646 25.0945 47.2646H23.9688V42.6149H25.4275C26.767 42.6149 27.7401 43.3468 27.7401 44.9236ZM33.5482 54.041C33.5482 51.1852 31.8753 49.4824 29.2291 49.0265V48.9646C31.3576 48.4468 33.2136 47.2027 33.2136 43.8028C33.2136 40.6421 31.0233 38.7898 26.5244 38.7898H18.4937V59.9967H26.6432C30.6881 59.9967 33.5482 58.2316 33.5482 54.041Z" fill="white"/>
<path d="M44.2706 52.8552C44.2706 54.3389 43.9975 56.8981 41.4736 56.8981C40.3467 56.8981 39.5894 56.3452 39.5894 54.9489C39.5894 53.0966 41.1974 52.3395 43.6326 52.3395H44.2706V52.8552ZM49.3187 59.9967C49.228 59.0506 49.1376 57.7774 49.1376 56.4981V49.6631C49.1376 46.4153 48.0408 43.8029 42.4756 43.8029C39.8294 43.8029 37.8535 44.3491 36.5468 44.8361L36.7279 48.7537C37.8848 48.025 39.5898 47.2645 41.29 47.2645C43.4519 47.2645 44.271 48.4189 44.271 49.4234V49.9072H42.8726C37.3691 49.9072 34.7231 51.7903 34.7231 55.3141C34.7231 58.3521 36.7279 60.3587 39.5281 60.3587C41.4421 60.3587 42.6901 59.5681 44.271 57.8062C44.271 58.536 44.393 59.2629 44.452 59.9965L49.3187 59.9967Z" fill="white"/>
<path d="M66.7399 59.9967V48.9059C66.7399 45.4122 64.6379 43.8027 61.9365 43.8027C60.0792 43.8027 58.6824 44.5593 57.7682 46.1722H57.6792C57.7398 45.5929 57.7997 44.8644 57.7997 44.2275V37.2053H52.3267V59.9967H57.7995V51.3047C57.7995 49.6633 58.4093 48.2362 59.7773 48.2362C60.8094 48.2362 61.2662 48.9649 61.2662 50.4821V59.9968L66.7399 59.9967Z" fill="white"/>
<path d="M84.3496 59.9966V48.9058C84.3496 45.4121 82.2513 43.8026 79.5464 43.8026C76.4447 43.8026 75.3782 45.9578 75.0763 46.8089H75.013C75.013 45.928 74.9813 44.8023 74.8926 44.166H69.7556C69.8413 44.8948 69.9366 46.2008 69.9366 47.3882V59.9965H75.4096V51.3046C75.4096 49.6633 76.0161 48.2362 77.3847 48.2362C78.4225 48.2362 78.8769 48.9648 78.8769 50.482V59.9967L84.3496 59.9966Z" fill="white"/>
</svg>
