<svg width="100" height="100" viewBox="0 0 100 100" fill="none" xmlns="http://www.w3.org/2000/svg">
<rect width="100" height="100" rx="50" fill="#993399"/>
<mask id="mask0_30_77" style="mask-type:alpha" maskUnits="userSpaceOnUse" x="0" y="0" width="100" height="100">
<rect width="100" height="100" rx="50" fill="#993399"/>
</mask>
<g mask="url(#mask0_30_77)">
<path d="M32.6915 56.9521C32.6915 58.5736 32.4021 60.0223 31.8235 61.2985C31.258 62.5746 30.4755 63.6331 29.4761 64.4738C28.3187 65.4647 27.0431 66.1703 25.6491 66.5907C24.2682 67.0111 22.5125 67.2213 20.3821 67.2213H7.55981V33.6889H18.9618C21.329 33.6889 23.0583 33.779 24.1499 33.9591C25.2545 34.1393 26.3461 34.5371 27.4245 35.1527C28.5423 35.7983 29.3708 36.669 29.91 37.765C30.4624 38.846 30.7385 40.0846 30.7386 41.4808C30.7385 43.1023 30.3637 44.536 29.6141 45.7821C28.8645 47.0133 27.8058 47.9741 26.4382 48.6647V48.8449C28.3582 49.2803 29.8771 50.1811 30.995 51.5473C32.126 52.9135 32.6915 54.7151 32.6915 56.9521ZM22.986 43.1698C22.986 42.6143 22.861 42.0588 22.6112 41.5033C22.3745 40.9479 21.9471 40.535 21.329 40.2647C20.7766 40.0245 20.0862 39.8969 19.2577 39.8819C18.4423 39.8519 17.2916 39.8369 15.8055 39.8368H15.0954V46.9307H16.279C17.4757 46.9307 18.4949 46.9082 19.3366 46.8631C20.1782 46.8181 20.8424 46.6679 21.329 46.4127C22.0128 46.0674 22.4599 45.6245 22.6704 45.084C22.8808 44.5285 22.986 43.8905 22.986 43.1698ZM24.8403 56.817C24.8403 55.751 24.6562 54.9328 24.288 54.3623C23.9329 53.7768 23.3213 53.3414 22.4534 53.0561C21.8616 52.861 21.0462 52.7559 20.0073 52.7408C18.9683 52.7258 17.8834 52.7183 16.7524 52.7183H15.0954V61.0733H15.6477C17.7782 61.0733 19.3037 61.0658 20.2243 61.0508C21.1448 61.0357 21.9931 60.8406 22.769 60.4652C23.5581 60.0899 24.0972 59.5945 24.3866 58.9789C24.689 58.3483 24.8403 57.6277 24.8403 56.817ZM64.0568 55.0829C64.0567 59.2266 62.952 62.402 60.7427 64.6089C58.5333 66.8159 55.2784 67.9194 50.978 67.9194C46.6776 67.9194 43.4227 66.8159 41.2134 64.6089C39.0171 62.402 37.919 59.2341 37.919 55.1055V33.6889H45.5335V54.61C45.5335 56.9371 45.9609 58.6711 46.8157 59.8121C47.6705 60.9532 49.058 61.5237 50.978 61.5237C52.8718 61.5237 54.2526 60.9757 55.1206 59.8797C56.0017 58.7837 56.4423 57.0272 56.4423 54.61V33.6889H64.0568V55.0829ZM94.6724 56.6819C94.6724 59.9848 93.4428 62.6722 90.9835 64.744C88.5374 66.8009 85.2102 67.8293 81.0019 67.8293C78.5689 67.8293 76.445 67.5891 74.6302 67.1087C72.8285 66.6132 71.1386 65.9902 69.5605 65.2395V57.1998H70.389C71.954 58.6261 73.703 59.7221 75.6363 60.4878C77.5826 61.2534 79.4501 61.6363 81.2386 61.6363C81.6989 61.6363 82.3038 61.5912 83.0535 61.5012C83.8031 61.4111 84.4146 61.2609 84.888 61.0508C85.4667 60.7805 85.9401 60.4427 86.3083 60.0373C86.6897 59.632 86.8804 59.0315 86.8804 58.2357C86.8804 57.5001 86.6042 56.8695 86.0519 56.3441C85.5127 55.8036 84.717 55.3907 83.665 55.1055C82.5603 54.8052 81.3898 54.5275 80.1536 54.2722C78.9306 54.002 77.7799 53.6642 76.7015 53.2588C74.2291 52.343 72.4471 51.1044 71.3556 49.543C70.2772 47.9666 69.738 46.0149 69.738 43.6878C69.738 40.565 70.9611 38.0202 73.4072 36.0535C75.8664 34.0717 79.0226 33.0808 82.8759 33.0808C84.8091 33.0808 86.716 33.2985 88.5966 33.7339C90.4904 34.1543 92.1277 34.6873 93.5085 35.3328V43.0572H92.6998C91.5161 41.9763 90.0629 41.0755 88.3402 40.3548C86.6305 39.6192 84.8814 39.2513 83.0929 39.2513C82.4616 39.2513 81.8304 39.3039 81.1992 39.409C80.581 39.4991 79.9827 39.6792 79.404 39.9494C78.8911 40.1747 78.4506 40.52 78.0824 40.9854C77.7141 41.4358 77.53 41.9537 77.53 42.5392C77.53 43.4251 77.8259 44.1082 78.4177 44.5886C79.0095 45.054 80.1273 45.4819 81.7712 45.8722C82.8496 46.1275 83.882 46.3752 84.8683 46.6154C85.8678 46.8556 86.9396 47.1859 88.0837 47.6063C90.3325 48.447 91.9896 49.5956 93.0548 51.0518C94.1332 52.4931 94.6724 54.3698 94.6724 56.6819Z" fill="white"/>
<path d="M52 0H97C98.6569 0 100 1.34315 100 3V97C100 98.6569 98.6569 100 97 100H52V0Z" fill="black" fill-opacity="0.2"/>
</g>
</svg>
