<svg width="100" height="100" viewBox="0 0 100 100" fill="none" xmlns="http://www.w3.org/2000/svg">
<rect opacity="0.6" x="15" y="15" width="70" height="70" fill="#2B2A2A"/>
<mask id="mask0_27_397" style="mask-type:alpha" maskUnits="userSpaceOnUse" x="0" y="0" width="100" height="100">
<rect width="100" height="100" rx="50" fill="#993399"/>
</mask>
<g mask="url(#mask0_27_397)">
<path d="M-0.898071 51.5049C-0.898071 79.8532 21.9295 102.907 49.9999 102.907C78.0703 102.907 100.898 79.8532 100.898 51.5049C100.898 23.1565 78.0703 0.102905 49.9999 0.102905C21.9295 0.102905 -0.898071 23.1565 -0.898071 51.5049Z" fill="white"/>
<path d="M85.8632 88.1147C84.0272 88.7533 78.9476 89.9689 72.7664 89.9689C54.692 89.9689 46.124 81.2954 36.1688 79.4412L40.8608 58.1182H63.9128L66.9524 44.6239H44.186L47.7764 28.884H71.93L74.888 15.1013H32.0072L17.5232 79.1734C15.116 79.4618 10.6076 81.3984 9.3224 82.5315C2.876 73.8581 -1 63.0421 -1 51.505C-1 23.0948 21.8684 0 50 0C78.1316 0 101 23.0948 101 51.505C101 65.8439 95.186 78.782 85.8632 88.1147ZM50 103.01C60.506 103.01 70.298 99.7548 78.3968 94.2541C76.5608 94.7073 74.4392 94.9957 72.134 94.9957C49.2656 94.9957 43.4516 83.3556 26.2952 83.3556C20.216 83.3556 15.6872 84.7565 12.7496 86.6107C21.7868 96.4997 35.2508 103.01 50 103.01Z" fill="#0080BA"/>
<path d="M52 0H97C98.6569 0 100 1.34315 100 3V97C100 98.6569 98.6569 100 97 100H52V0Z" fill="black" fill-opacity="0.2"/>
</g>
</svg>
