<svg width="100" height="100" viewBox="0 0 100 100" fill="none" xmlns="http://www.w3.org/2000/svg">
<rect x="1" y="1" width="98" height="98" rx="2" fill="white" stroke="#C7C4C4" stroke-width="2"/>
<rect opacity="0.6" x="15" y="15" width="70" height="70" fill="#FFFDFD"/>
<mask id="mask0_32_28" style="mask-type:alpha" maskUnits="userSpaceOnUse" x="0" y="0" width="100" height="100">
<rect width="100" height="100" rx="3" fill="#4D5659" fill-opacity="0.3"/>
</mask>
<g mask="url(#mask0_32_28)">
<path d="M52 0H97C98.6569 0 100 1.34315 100 3V97C100 98.6569 98.6569 100 97 100H52V0Z" fill="black" fill-opacity="0.2"/>
</g>
<path fill-rule="evenodd" clip-rule="evenodd" d="M47.4737 48.0527C45.4463 59.959 50.0942 65.8879 60.6618 65.9992C64.4086 66.0387 69.2941 64.5453 69.2873 64.3478L70.0002 59.1611C67.6423 59.9968 65.6607 60.6638 62.849 60.6111C59.2971 60.5444 55.7275 59.6059 55.634 53.2351C55.5006 44.121 58.9343 36.5194 67.2267 36.3647C70.0652 36.312 71.3934 36.8308 73.9595 37.8449L75 32.2206C72.8808 31.3378 71.2209 30.5955 66.3073 30.5063C55.8354 30.3151 49.1939 37.9512 47.4737 48.0527ZM31.8392 65.5569L39.9579 65.5522L46.2726 31.2732H38.0431L31.8392 65.5569Z" fill="#B4B4B4"/>
<rect x="2" y="13" width="96" height="14" fill="#EA1D26"/>
</svg>
