<svg width="100" height="100" viewBox="0 0 100 100" fill="none" xmlns="http://www.w3.org/2000/svg">
<rect x="1" y="1" width="98" height="98" rx="2" fill="white" stroke="#C7C4C4" stroke-width="2"/>
<rect opacity="0.6" x="15" y="15" width="70" height="70" fill="#FFFDFD"/>
<mask id="mask0_32_25" style="mask-type:alpha" maskUnits="userSpaceOnUse" x="0" y="0" width="100" height="100">
<rect width="100" height="100" rx="3" fill="#4D5659" fill-opacity="0.3"/>
</mask>
<g mask="url(#mask0_32_25)">
<path d="M52 0H97C98.6569 0 100 1.34315 100 3V97C100 98.6569 98.6569 100 97 100H52V0Z" fill="black" fill-opacity="0.2"/>
</g>
<path fill-rule="evenodd" clip-rule="evenodd" d="M29.8858 47.7986C27.8258 59.8734 32.5485 65.8862 43.2859 65.9991C47.0926 66.0388 51.3944 64.7255 51.9089 64.4208L52.8975 59.0642C50.5016 59.9117 48.3652 60.5878 45.5078 60.5344C41.8993 60.4667 38.2718 59.5153 38.1773 53.054C38.0413 43.8109 41.5307 36.1017 49.956 35.9453C52.8401 35.8914 54.2064 36.3968 56.8138 37.4253L57.8542 31.7891C55.7009 30.8937 54.0143 30.0945 49.0222 30.0035C38.3819 29.8101 31.6333 37.5537 29.8858 47.7986ZM14 65.5506L22.2492 65.5458L28.6654 30.7813H20.3031L14 65.5506ZM62.7409 30.7813L56.0877 65.5506L80.3366 65.548L81.3705 59.9454H65.3272L66.782 51.1706L78.653 51.1728L79.7271 45.3525L67.9933 45.3448L69.7537 36.7902L84.8914 36.7894L86 30.7817L62.7409 30.7813Z" fill="#B4B4B4"/>
<rect x="2" y="34" width="9" height="14" fill="#EA1D26"/>
<rect x="88" y="34" width="10" height="14" fill="#EA1D26"/>
</svg>
