<svg width="100" height="100" viewBox="0 0 100 100" fill="none" xmlns="http://www.w3.org/2000/svg">
<rect width="100" height="100" rx="50" fill="#4D5659"/>
<mask id="mask0_30_53" style="mask-type:alpha" maskUnits="userSpaceOnUse" x="0" y="0" width="100" height="100">
<rect width="100" height="100" rx="50" fill="#993399"/>
</mask>
<g mask="url(#mask0_30_53)">
<path fill-rule="evenodd" clip-rule="evenodd" d="M101 50.5C101 22.6442 78.3558 0 50.5 0C22.6442 0 0 22.6442 0 50.5C0 78.3558 22.6442 101 50.5 101C78.3558 101 101 78.3558 101 50.5Z" fill="#008D4F"/>
<path fill-rule="evenodd" clip-rule="evenodd" d="M83.6483 63.933C83.6483 76.1742 71.7707 90.4152 51.7727 90.4152C40.6223 90.4152 27.7549 85.4056 20.7253 79.1032V63.2058C27.3913 72.8008 39.5315 80.194 51.7727 80.194C59.2669 80.194 65.2865 75.9116 65.2865 71.3262C65.2865 54.0754 20.0789 64.741 20.0789 34.9864C20.0789 19.3718 35.3299 10.9686 49.0255 10.9686C60.4385 10.9686 70.6597 14.7056 78.8003 21.008V34.2592C71.7707 26.664 61.1859 19.998 48.7629 19.998C41.7333 19.998 37.7135 23.735 37.7135 28.1184C37.7135 46.5812 83.6483 33.6128 83.6483 63.933Z" fill="white"/>
<path d="M52 0H97C98.6569 0 100 1.34315 100 3V97C100 98.6569 98.6569 100 97 100H52V0Z" fill="black" fill-opacity="0.2"/>
</g>
</svg>
