<svg width="100" height="100" viewBox="0 0 100 100" fill="none" xmlns="http://www.w3.org/2000/svg">
<rect width="100" height="100" rx="3" fill="#D82020"/>
<mask id="mask0_30_36" style="mask-type:alpha" maskUnits="userSpaceOnUse" x="0" y="0" width="100" height="100">
<rect width="100" height="100" rx="3" fill="#4D5659"/>
</mask>
<g mask="url(#mask0_30_36)">
<path d="M52 0H97C98.6569 0 100 1.34315 100 3V97C100 98.6569 98.6569 100 97 100H52V0Z" fill="black" fill-opacity="0.2"/>
</g>
<path fill-rule="evenodd" clip-rule="evenodd" d="M22.9179 36.4396V31.5024H2.67798V36.4396H9.71748V63.5076H15.8774V36.4396" fill="white"/>
<path fill-rule="evenodd" clip-rule="evenodd" d="M37.7751 39.7913C37.3251 39.5953 36.4001 39.5095 35.9626 39.5095C33.4251 39.5095 31.6625 40.563 30.15 43.0498L29.7001 39.9383H24.425V63.5073H30.2375V50.6203C30.2375 47.6435 31.025 44.581 34.5 44.581C35.0375 44.581 35.575 44.679 36.1125 44.826" fill="white"/>
<path fill-rule="evenodd" clip-rule="evenodd" d="M58.3375 63.5073C58.1375 62.074 57.9 60.5918 57.9 59.1463V46.2103C57.9 42.0943 55.0125 39.5095 49.3875 39.5095C46.8375 39.5095 43.8625 39.7913 41.5125 40.8448L42.4875 44.826C44.15 43.9563 46.45 43.5765 48.2125 43.5765C50.75 43.5765 52.275 44.679 52.275 47.129V49.7628C51.3875 49.6158 50.2625 49.3708 48.55 49.3708C43.075 49.3708 39.3125 52.0045 39.3125 56.8923C39.3125 61.2533 41.7125 63.936 46.4 63.936C49.0875 63.936 51.1 62.7845 52.4625 60.7265L52.9 63.5073M52.275 56.4145C52.275 58.5215 50.4125 60.1018 48.2125 60.1018C46.0625 60.1018 45.1875 58.6195 45.1875 56.6105C45.1875 54.5403 46.4 52.6783 49.1375 52.6783C50.5625 52.6783 51.6375 52.8743 52.275 53.107V56.4145Z" fill="white"/>
<path fill-rule="evenodd" clip-rule="evenodd" d="M94.9375 63.5073V46.884C94.9375 42.768 92.8875 39.5095 88.3875 39.5095C85.1625 39.5095 83.0625 41.0898 82.175 43.0988C81.4 41.4205 79.875 39.5095 76.075 39.5095C73.2375 39.5095 70.9875 40.9428 70.0125 43.0988L69.5625 39.9383H64.4375V63.5073H70.25V48.7093C70.25 46.3573 71.175 43.5765 73.725 43.5765C75.925 43.5765 76.8 45.0588 76.8 47.3128V63.5073H82.575V48.6113C82.575 46.2593 83.45 43.5765 86.0375 43.5765C88.2375 43.5765 89.125 45.2548 89.125 47.3128V63.5073" fill="white"/>
</svg>
