<svg xmlns="http://www.w3.org/2000/svg" viewBox="0 -960 960 960" fill="currentColor">
  <path d="M440-42v-82q-99-12-177.5-72.5T143-349Q83-427 71-526H-12v-80h83q12-99 72.5-177.5T296-905q78.5-60.5 177.5-72.5v-82h80v82q99 12 177.5 72.5T883-783.5Q943-705 955-606h82v80h-82q-12 99-72 177.5T730.5-196.5Q652-136 553-124v82h-80Zm40-160q117 0 197.5-80.5T758-480q0-117-80.5-197.5T480-758q-117 0-197.5 80.5T202-480q0 117 80.5 197.5T480-202Zm0-118q-67 0-113.5-46.5T320-480q0-67 46.5-113.5T480-640q67 0 113.5 46.5T640-480q0 67-46.5 113.5T480-320Zm0-80q33 0 56.5-23.5T560-480q0-33-23.5-56.5T480-560q-33 0-56.5 23.5T400-480q0 33 23.5 56.5T480-400Z"/>
</svg>
