<svg width="356" height="389" viewBox="0 0 356 389" fill="none" xmlns="http://www.w3.org/2000/svg">
<rect x="38.5" y="31.5" width="275" height="275" rx="17.5" fill="#D9D9D9" stroke="#FF0B0B" stroke-width="25"/>
<path d="M176 49C256.689 57.8565 284.83 82.4878 298 169H176V49Z" fill="#75EB68"/>
<path d="M3.16051 368V331.636H17.5071C20.2652 331.636 22.6148 332.163 24.5561 333.217C26.4974 334.258 27.977 335.708 28.995 337.567C30.0249 339.413 30.5398 341.544 30.5398 343.959C30.5398 346.374 30.0189 348.504 28.9773 350.351C27.9356 352.197 26.4264 353.636 24.4496 354.665C22.4846 355.695 20.1054 356.21 17.3118 356.21H8.16761V350.049H16.0689C17.5485 350.049 18.7678 349.795 19.7266 349.286C20.6972 348.765 21.4193 348.049 21.8928 347.137C22.3781 346.214 22.6207 345.154 22.6207 343.959C22.6207 342.751 22.3781 341.698 21.8928 340.798C21.4193 339.887 20.6972 339.183 19.7266 338.685C18.7559 338.176 17.5249 337.922 16.0334 337.922H10.8487V368H3.16051ZM47.381 368.533C44.5756 368.533 42.1609 367.964 40.1367 366.828C38.1244 365.68 36.5737 364.058 35.4847 361.963C34.3957 359.856 33.8512 357.364 33.8512 354.488C33.8512 351.683 34.3957 349.22 35.4847 347.102C36.5737 344.983 38.1067 343.331 40.0835 342.148C42.0721 340.964 44.404 340.372 47.0792 340.372C48.8784 340.372 50.5534 340.662 52.104 341.242C53.6665 341.81 55.0278 342.669 56.1879 343.817C57.3597 344.965 58.2712 346.409 58.9222 348.149C59.5733 349.877 59.8988 351.902 59.8988 354.222V356.299H36.8697V351.612H52.7788C52.7788 350.522 52.542 349.558 52.0685 348.717C51.5951 347.877 50.9381 347.22 50.0977 346.746C49.2691 346.261 48.3043 346.018 47.2035 346.018C46.0553 346.018 45.0373 346.285 44.1495 346.817C43.2736 347.338 42.587 348.043 42.0898 348.93C41.5927 349.806 41.3382 350.783 41.3263 351.86V356.317C41.3263 357.666 41.5749 358.832 42.0721 359.815C42.5811 360.797 43.2972 361.555 44.2205 362.087C45.1438 362.62 46.2388 362.886 47.5053 362.886C48.3458 362.886 49.1152 362.768 49.8136 362.531C50.512 362.295 51.1097 361.939 51.6069 361.466C52.104 360.992 52.4828 360.412 52.7433 359.726L59.739 360.188C59.3839 361.868 58.6559 363.336 57.555 364.591C56.466 365.834 55.0574 366.804 53.3292 367.503C51.6128 368.189 49.6301 368.533 47.381 368.533ZM72.3988 352.233V368H64.8349V340.727H72.0437V345.539H72.3633C72.967 343.953 73.979 342.698 75.3995 341.775C76.82 340.84 78.5423 340.372 80.5664 340.372C82.4603 340.372 84.1116 340.786 85.5202 341.615C86.9289 342.444 88.0238 343.627 88.805 345.166C89.5863 346.693 89.9769 348.516 89.9769 350.635V368H82.413V351.984C82.4248 350.315 81.9987 349.013 81.1346 348.078C80.2705 347.131 79.0808 346.658 77.5657 346.658C76.5477 346.658 75.6481 346.877 74.8668 347.315C74.0974 347.753 73.4937 348.392 73.0558 349.232C72.6296 350.061 72.4106 351.061 72.3988 352.233ZM105.988 368.444C103.917 368.444 102.04 367.911 100.36 366.846C98.6905 365.769 97.3648 364.188 96.3823 362.105C95.4116 360.01 94.9263 357.441 94.9263 354.399C94.9263 351.274 95.4294 348.676 96.4355 346.604C97.4417 344.521 98.7793 342.964 100.448 341.935C102.129 340.893 103.97 340.372 105.97 340.372C107.497 340.372 108.77 340.633 109.788 341.153C110.818 341.662 111.646 342.302 112.274 343.071C112.913 343.829 113.398 344.574 113.73 345.308H113.96V331.636H121.507V368H114.049V363.632H113.73C113.374 364.39 112.871 365.141 112.22 365.887C111.581 366.621 110.747 367.231 109.717 367.716C108.699 368.201 107.456 368.444 105.988 368.444ZM108.385 362.425C109.604 362.425 110.634 362.093 111.475 361.43C112.327 360.756 112.978 359.815 113.428 358.607C113.889 357.4 114.12 355.985 114.12 354.364C114.12 352.742 113.895 351.333 113.445 350.138C112.996 348.942 112.345 348.019 111.492 347.368C110.64 346.717 109.604 346.391 108.385 346.391C107.142 346.391 106.095 346.729 105.242 347.403C104.39 348.078 103.745 349.013 103.307 350.209C102.869 351.404 102.65 352.789 102.65 354.364C102.65 355.95 102.869 357.353 103.307 358.572C103.757 359.779 104.402 360.726 105.242 361.413C106.095 362.087 107.142 362.425 108.385 362.425ZM135.289 331.636V368H127.725V331.636H135.289ZM153.778 368.533C150.972 368.533 148.557 367.964 146.533 366.828C144.521 365.68 142.97 364.058 141.881 361.963C140.792 359.856 140.248 357.364 140.248 354.488C140.248 351.683 140.792 349.22 141.881 347.102C142.97 344.983 144.503 343.331 146.48 342.148C148.469 340.964 150.8 340.372 153.476 340.372C155.275 340.372 156.95 340.662 158.501 341.242C160.063 341.81 161.424 342.669 162.584 343.817C163.756 344.965 164.668 346.409 165.319 348.149C165.97 349.877 166.295 351.902 166.295 354.222V356.299H143.266V351.612H159.175C159.175 350.522 158.939 349.558 158.465 348.717C157.992 347.877 157.335 347.22 156.494 346.746C155.666 346.261 154.701 346.018 153.6 346.018C152.452 346.018 151.434 346.285 150.546 346.817C149.67 347.338 148.983 348.043 148.486 348.93C147.989 349.806 147.735 350.783 147.723 351.86V356.317C147.723 357.666 147.971 358.832 148.469 359.815C148.978 360.797 149.694 361.555 150.617 362.087C151.54 362.62 152.635 362.886 153.902 362.886C154.742 362.886 155.512 362.768 156.21 362.531C156.908 362.295 157.506 361.939 158.003 361.466C158.501 360.992 158.879 360.412 159.14 359.726L166.135 360.188C165.78 361.868 165.052 363.336 163.952 364.591C162.863 365.834 161.454 366.804 159.726 367.503C158.009 368.189 156.027 368.533 153.778 368.533ZM171.231 368V340.727H178.564V345.486H178.849C179.346 343.793 180.18 342.515 181.352 341.651C182.524 340.775 183.873 340.337 185.4 340.337C185.779 340.337 186.188 340.36 186.626 340.408C187.064 340.455 187.448 340.52 187.78 340.603V347.315C187.425 347.208 186.933 347.113 186.306 347.031C185.679 346.948 185.104 346.906 184.584 346.906C183.471 346.906 182.477 347.149 181.601 347.634C180.737 348.108 180.05 348.771 179.541 349.623C179.044 350.475 178.795 351.458 178.795 352.57V368H171.231Z" fill="#3C3C3C"/>
<path d="M197.428 368H189.19L201.743 331.636H211.651L224.186 368H215.947L206.839 339.946H206.555L197.428 368ZM196.913 353.707H216.374V359.708H196.913V353.707ZM235.985 331.636V368H228.421V331.636H235.985ZM249.821 368.515C248.081 368.515 246.53 368.213 245.169 367.609C243.808 366.994 242.73 366.088 241.937 364.893C241.156 363.685 240.765 362.182 240.765 360.383C240.765 358.868 241.044 357.595 241.6 356.565C242.156 355.536 242.914 354.707 243.873 354.08C244.831 353.452 245.921 352.979 247.14 352.659C248.371 352.339 249.661 352.115 251.01 351.984C252.597 351.819 253.875 351.665 254.846 351.523C255.816 351.369 256.521 351.144 256.959 350.848C257.397 350.552 257.616 350.114 257.616 349.534V349.428C257.616 348.303 257.26 347.433 256.55 346.817C255.852 346.202 254.858 345.894 253.567 345.894C252.206 345.894 251.123 346.196 250.318 346.8C249.513 347.392 248.98 348.137 248.72 349.037L241.724 348.469C242.079 346.812 242.778 345.379 243.819 344.172C244.861 342.953 246.205 342.018 247.85 341.366C249.507 340.704 251.425 340.372 253.603 340.372C255.118 340.372 256.568 340.55 257.953 340.905C259.35 341.26 260.587 341.81 261.664 342.556C262.753 343.302 263.611 344.261 264.238 345.433C264.866 346.593 265.18 347.983 265.18 349.605V368H258.006V364.218H257.793C257.355 365.07 256.769 365.822 256.035 366.473C255.301 367.112 254.42 367.615 253.39 367.982C252.36 368.337 251.17 368.515 249.821 368.515ZM251.987 363.295C253.1 363.295 254.082 363.076 254.934 362.638C255.787 362.188 256.456 361.584 256.941 360.827C257.426 360.069 257.669 359.211 257.669 358.252V355.358C257.432 355.512 257.107 355.654 256.692 355.784C256.29 355.902 255.834 356.015 255.325 356.121C254.816 356.216 254.307 356.305 253.798 356.388C253.289 356.459 252.827 356.524 252.413 356.583C251.525 356.713 250.75 356.92 250.087 357.205C249.424 357.489 248.909 357.873 248.542 358.359C248.175 358.832 247.992 359.424 247.992 360.134C247.992 361.164 248.365 361.951 249.111 362.496C249.868 363.028 250.827 363.295 251.987 363.295ZM271.048 368V340.727H278.381V345.486H278.665C279.162 343.793 279.997 342.515 281.169 341.651C282.34 340.775 283.69 340.337 285.217 340.337C285.596 340.337 286.004 340.36 286.442 340.408C286.88 340.455 287.265 340.52 287.596 340.603V347.315C287.241 347.208 286.75 347.113 286.122 347.031C285.495 346.948 284.921 346.906 284.4 346.906C283.287 346.906 282.293 347.149 281.417 347.634C280.553 348.108 279.866 348.771 279.357 349.623C278.86 350.475 278.612 351.458 278.612 352.57V368H271.048ZM291.507 368V340.727H298.716V345.539H299.035C299.603 343.941 300.55 342.68 301.876 341.757C303.202 340.834 304.788 340.372 306.635 340.372C308.505 340.372 310.097 340.84 311.411 341.775C312.725 342.698 313.601 343.953 314.039 345.539H314.323C314.879 343.977 315.885 342.728 317.341 341.793C318.809 340.846 320.543 340.372 322.544 340.372C325.089 340.372 327.154 341.183 328.74 342.805C330.338 344.415 331.137 346.699 331.137 349.658V368H323.591V351.15C323.591 349.635 323.189 348.498 322.384 347.741C321.579 346.983 320.573 346.604 319.365 346.604C317.992 346.604 316.921 347.042 316.152 347.918C315.382 348.782 314.998 349.925 314.998 351.345V368H307.664V350.99C307.664 349.652 307.28 348.587 306.51 347.794C305.753 347.001 304.752 346.604 303.51 346.604C302.669 346.604 301.912 346.817 301.237 347.244C300.574 347.658 300.047 348.244 299.657 349.001C299.266 349.747 299.071 350.623 299.071 351.629V368H291.507Z" fill="#07AB02"/>
<path d="M176.008 53V67.1818" stroke="#3C3C3C" stroke-width="8" stroke-linecap="round"/>
<path d="M234.951 67.0045L227.86 79.325" stroke="#3C3C3C" stroke-width="8" stroke-linecap="round"/>
<path d="M278.117 110.17L265.796 117.261" stroke="#3C3C3C" stroke-width="8" stroke-linecap="round"/>
<path d="M293.894 169.114H279.712" stroke="#3C3C3C" stroke-width="8" stroke-linecap="round"/>
<path d="M278.117 228.057L265.796 220.966" stroke="#3C3C3C" stroke-width="8" stroke-linecap="round"/>
<path d="M234.951 271.223L227.86 258.902" stroke="#3C3C3C" stroke-width="8" stroke-linecap="round"/>
<path d="M176.008 287V272.818" stroke="#3C3C3C" stroke-width="8" stroke-linecap="round"/>
<path d="M117.064 271.223L124.155 258.902" stroke="#3C3C3C" stroke-width="8" stroke-linecap="round"/>
<path d="M73.8984 228.057L86.2189 220.966" stroke="#3C3C3C" stroke-width="8" stroke-linecap="round"/>
<path d="M58.1212 169.114H72.303" stroke="#3C3C3C" stroke-width="8" stroke-linecap="round"/>
<path d="M73.8984 110.17L86.2189 117.261" stroke="#3C3C3C" stroke-width="8" stroke-linecap="round"/>
<path d="M117.064 67.0045L124.155 79.325" stroke="#3C3C3C" stroke-width="8" stroke-linecap="round"/>
<path d="M176 169L265 103" stroke="#FF0B0B" stroke-width="18" stroke-linecap="round"/>
<path d="M176 169L116 131" stroke="#FF0B0B" stroke-width="18" stroke-linecap="round"/>
<path d="M176 187C185.941 187 194 178.941 194 169C194 159.059 185.941 151 176 151C166.059 151 158 159.059 158 169C158 178.941 166.059 187 176 187Z" fill="white" stroke="#FF0B0B" stroke-width="12"/>
<path d="M11 34V9C11 6.23858 13.2386 4 16 4H41" stroke="#FF0B0B" stroke-width="8"/>
</svg>
